<?xml version="1.0" encoding="utf-8"?>
<!-- Generator: Adobe Illustrator 25.2.3, SVG Export Plug-In . SVG Version: 6.00 Build 0)  -->
<svg version="1.1" id="Capa_1" xmlns="http://www.w3.org/2000/svg" xmlns:xlink="http://www.w3.org/1999/xlink" x="0px" y="0px"
	 viewBox="0 0 675 675" style="enable-background:new 0 0 675 675;" xml:space="preserve">
<style type="text/css">
	.st0{fill:#2C2948;}
	.st1{fill:none;stroke:#7D79A1;stroke-width:7;stroke-linejoin:round;stroke-miterlimit:10;}
	.st2{fill:#FFFFFF;}
	.st3{fill:#7D79A1;}
</style>
<g id="Capa_2_1_">
</g>
<g id="Capa_3">
	<rect x="0" class="st0" width="675" height="675"/>
</g>
<path class="st1" d="M32.1,70.7c0,0,171.7-31.4,310.7-31.4s304.7,31.4,304.7,31.4"/>
<g>
	<path class="st2" d="M273.9,66.5h5.8V68h-4v1.9h2.9v1.5h-2.9v1.9h4v1.6h-5.8V66.5z"/>
	<path class="st2" d="M281.6,74.9c-0.5-0.1-0.9-0.2-1.2-0.4v-1.6c0.4,0.2,0.9,0.4,1.3,0.5s0.9,0.2,1.3,0.2c0.5,0,0.8-0.1,1.1-0.2
		c0.2-0.2,0.4-0.4,0.4-0.7c0-0.2-0.1-0.4-0.2-0.5s-0.3-0.3-0.5-0.4s-0.6-0.3-1.1-0.5c-0.8-0.3-1.4-0.7-1.7-1.1
		c-0.4-0.4-0.5-0.9-0.5-1.5c0-0.5,0.1-0.9,0.4-1.3s0.6-0.6,1.1-0.8c0.5-0.2,1-0.3,1.6-0.3c0.5,0,0.9,0,1.3,0.1s0.8,0.2,1.1,0.4v1.6
		c-0.7-0.4-1.4-0.5-2.1-0.5c-0.4,0-0.8,0.1-1.1,0.2c-0.3,0.2-0.4,0.4-0.4,0.7c0,0.2,0.1,0.4,0.2,0.5s0.3,0.3,0.5,0.4
		s0.6,0.3,1.1,0.5c0.6,0.2,1,0.5,1.3,0.7c0.3,0.2,0.6,0.5,0.7,0.8c0.2,0.3,0.2,0.7,0.2,1.1c0,0.8-0.3,1.4-0.8,1.8s-1.4,0.6-2.5,0.6
		C282.6,75.1,282.1,75,281.6,74.9z"/>
	<path class="st2" d="M289,74.5c-0.7-0.4-1.2-0.9-1.6-1.5c-0.4-0.7-0.6-1.4-0.6-2.3c0-0.9,0.2-1.7,0.6-2.3c0.4-0.7,0.9-1.2,1.6-1.5
		c0.7-0.4,1.5-0.5,2.4-0.5c1.2,0,2.1,0.3,2.9,0.8v1.7c-0.4-0.3-0.8-0.5-1.2-0.6c-0.5-0.1-1-0.2-1.5-0.2c-0.9,0-1.6,0.2-2.1,0.7
		s-0.8,1.1-0.8,2c0,0.8,0.3,1.5,0.8,2s1.2,0.7,2.1,0.7c0.6,0,1.1-0.1,1.6-0.2s0.9-0.4,1.3-0.7v1.7c-0.7,0.5-1.7,0.8-3,0.8
		C290.5,75.1,289.7,74.9,289,74.5z"/>
	<path class="st2" d="M295.4,66.5h5.8V68h-4v1.9h2.9v1.5h-2.9v1.9h4v1.6h-5.8V66.5z"/>
	<path class="st2" d="M302.1,66.5h1.8l3.5,5.4v-5.4h1.8v8.4h-1.8l-3.5-5.4v5.4h-1.8V66.5z"/>
	<path class="st2" d="M313.6,66.5h1.8l3.3,8.4h-1.9l-0.7-1.8h-3.3l-0.7,1.8h-1.9L313.6,66.5z M315.7,71.6l-1.2-3.2l-1.2,3.2H315.7z"
		/>
	<path class="st2" d="M319.7,66.5h3.6c1,0,1.7,0.2,2.2,0.7s0.8,1.2,0.8,2.1c0,0.6-0.1,1.2-0.4,1.6c-0.3,0.4-0.7,0.8-1.2,1l1.6,3.1
		h-1.9l-1.5-2.8h-1.4v2.7h-1.8L319.7,66.5L319.7,66.5z M323.1,70.5c0.5,0,0.8-0.1,1.1-0.3c0.3-0.2,0.4-0.5,0.4-0.9
		c0-0.5-0.1-0.8-0.4-1c-0.3-0.2-0.6-0.3-1.1-0.3h-1.5v2.5H323.1z"/>
	<path class="st2" d="M327.4,66.5h1.8v8.4h-1.8V66.5z"/>
	<path class="st2" d="M332.5,74.5c-0.7-0.4-1.2-0.9-1.6-1.5c-0.4-0.7-0.6-1.4-0.6-2.3c0-0.9,0.2-1.6,0.6-2.3
		c0.4-0.7,0.9-1.2,1.6-1.5c0.7-0.4,1.4-0.6,2.3-0.6s1.6,0.2,2.3,0.6c0.7,0.4,1.2,0.9,1.6,1.5c0.4,0.7,0.6,1.4,0.6,2.3
		c0,0.9-0.2,1.6-0.6,2.3s-0.9,1.2-1.6,1.5c-0.7,0.4-1.4,0.6-2.3,0.6S333.2,74.9,332.5,74.5z M336.1,73.1c0.4-0.2,0.7-0.5,0.9-0.9
		c0.2-0.4,0.3-0.9,0.3-1.4s-0.1-1-0.3-1.4c-0.2-0.4-0.5-0.7-0.9-0.9c-0.4-0.2-0.8-0.3-1.3-0.3s-0.9,0.1-1.3,0.3
		c-0.4,0.2-0.7,0.5-0.9,0.9c-0.2,0.4-0.3,0.9-0.3,1.4s0.1,1,0.3,1.4c0.2,0.4,0.5,0.7,0.9,0.9c0.4,0.2,0.8,0.3,1.3,0.3
		C335.2,73.4,335.7,73.3,336.1,73.1z"/>
	<path class="st2" d="M343.4,66.3h1.8l-3.4,8.6H340L343.4,66.3z"/>
	<path class="st2" d="M346.2,66.5h3.5c1,0,1.7,0.3,2.3,0.8c0.6,0.5,0.9,1.2,0.9,2.1c0,0.9-0.3,1.6-0.8,2.1c-0.6,0.5-1.3,0.7-2.3,0.7
		h-1.7v2.7h-1.8v-8.4H346.2z M349.5,70.7c1,0,1.5-0.4,1.5-1.3c0-0.5-0.1-0.8-0.4-1c-0.3-0.2-0.7-0.3-1.1-0.3h-1.4v2.6H349.5z"/>
	<path class="st2" d="M355.7,66.5h1.8l3.3,8.4h-1.9l-0.7-1.8h-3.3l-0.7,1.8h-1.9L355.7,66.5z M357.7,71.6l-1.2-3.2l-1.2,3.2H357.7z"
		/>
	<path class="st2" d="M361.8,66.5h1.8l3.5,5.4v-5.4h1.8v8.4h-1.8l-3.5-5.4v5.4h-1.8V66.5z"/>
	<path class="st2" d="M372.2,68h-2.4v-1.5h6.7V68h-2.4v6.9h-1.8V68H372.2z"/>
	<path class="st2" d="M378.9,66.5h1.8l3.3,8.4h-1.9l-0.7-1.8h-3.3l-0.7,1.8h-1.9L378.9,66.5z M380.9,71.6l-1.2-3.2l-1.2,3.2H380.9z"
		/>
	<path class="st2" d="M385,66.5h1.8v6.9h3.8v1.5h-5.7v-8.4H385z"/>
	<path class="st2" d="M391.4,66.5h1.8v6.9h3.8v1.5h-5.7v-8.4H391.4z"/>
	<path class="st2" d="M400.8,66.5h1.8l3.3,8.4H404l-0.7-1.8H400l-0.7,1.8h-1.9L400.8,66.5z M402.9,71.6l-1.2-3.2l-1.2,3.2H402.9z"/>
</g>
<g>
	<path class="st3" d="M41.9,647.5h1.8v8.4h-1.8V647.5z"/>
	<path class="st3" d="M45.7,655.3c-0.6-0.5-0.9-1.3-0.9-2.2c0-1,0.3-1.7,0.9-2.3s1.5-0.8,2.5-0.8c0.9,0,1.7,0.2,2.3,0.5v1.4
		c-0.3-0.2-0.6-0.3-0.9-0.4c-0.3-0.1-0.7-0.1-1.1-0.1c-0.6,0-1,0.1-1.3,0.4c-0.3,0.3-0.5,0.7-0.5,1.2c0,0.6,0.2,1,0.5,1.2
		c0.3,0.3,0.8,0.4,1.3,0.4c0.8,0,1.5-0.2,2.1-0.6v1.4c-0.6,0.4-1.4,0.6-2.3,0.6C47.1,656.1,46.3,655.8,45.7,655.3z"/>
	<path class="st3" d="M52.2,655.3c-0.6-0.5-0.9-1.3-0.9-2.2c0-1,0.3-1.7,0.8-2.3c0.6-0.6,1.4-0.8,2.4-0.8c0.7,0,1.3,0.1,1.8,0.4
		s0.8,0.6,1.1,1.1c0.2,0.5,0.4,1,0.4,1.5v0.7H53c0.1,0.7,0.8,1.1,2.1,1.1c0.4,0,0.7,0,1.1-0.1s0.7-0.2,1-0.3v1.3
		c-0.3,0.1-0.6,0.2-1.1,0.3s-0.9,0.1-1.3,0.1C53.7,656.1,52.9,655.8,52.2,655.3z M56,652.5c0-0.4-0.2-0.7-0.4-0.9
		c-0.3-0.2-0.6-0.3-1.1-0.3s-0.8,0.1-1.1,0.3s-0.4,0.5-0.4,0.9H56z"/>
	<path class="st3" d="M60.8,649h-2.4v-1.5h6.7v1.5h-2.5v6.9h-1.8V649z"/>
	<path class="st3" d="M65.8,649c-0.2-0.2-0.3-0.4-0.3-0.7s0.1-0.5,0.3-0.7c0.2-0.2,0.4-0.3,0.7-0.3c0.3,0,0.5,0.1,0.7,0.3
		s0.3,0.4,0.3,0.7s-0.1,0.5-0.3,0.7c-0.2,0.2-0.4,0.3-0.7,0.3C66.3,649.2,66,649.1,65.8,649z M65.6,650.1h1.8v5.8h-1.8V650.1z"/>
	<path class="st3" d="M69.5,655.3c-0.6-0.5-0.9-1.3-0.9-2.2c0-1,0.3-1.7,0.9-2.3S71,650,72,650c0.9,0,1.7,0.2,2.3,0.5v1.4
		c-0.3-0.2-0.6-0.3-0.9-0.4s-0.7-0.1-1.1-0.1c-0.6,0-1,0.1-1.3,0.4c-0.3,0.3-0.5,0.7-0.5,1.2c0,0.6,0.2,1,0.5,1.2
		c0.3,0.3,0.8,0.4,1.3,0.4c0.8,0,1.5-0.2,2.1-0.6v1.4c-0.6,0.4-1.4,0.6-2.3,0.6C70.9,656.1,70.1,655.8,69.5,655.3z"/>
	<path class="st3" d="M75.3,647h1.8v5.5l2.1-2.4h2.1l-2.4,2.8l2.7,3h-2.1l-2.4-2.6v2.6h-1.8L75.3,647L75.3,647z"/>
	<path class="st3" d="M83.3,655.3c-0.6-0.5-0.9-1.3-0.9-2.2c0-1,0.3-1.7,0.8-2.3c0.6-0.6,1.4-0.8,2.4-0.8c0.7,0,1.3,0.1,1.8,0.4
		s0.8,0.6,1.1,1.1c0.2,0.5,0.4,1,0.4,1.5v0.7h-4.8c0.1,0.7,0.8,1.1,2.1,1.1c0.4,0,0.7,0,1.1-0.1s0.7-0.2,1-0.3v1.3
		c-0.3,0.1-0.6,0.2-1.1,0.3c-0.4,0.1-0.9,0.1-1.3,0.1C84.8,656.1,84,655.8,83.3,655.3z M87.2,652.5c0-0.4-0.2-0.7-0.4-0.9
		s-0.6-0.3-1.1-0.3s-0.8,0.1-1.1,0.3s-0.4,0.5-0.4,0.9H87.2z"/>
	<path class="st3" d="M90.8,655.5c-0.3-0.4-0.5-0.9-0.5-1.6v-2.5h-0.8v-1.3h0.8v-1.7h1.8v1.7h1.4v1.3h-1.4v2.3
		c0,0.3,0.1,0.6,0.2,0.7c0.1,0.1,0.4,0.2,0.7,0.2c0.3,0,0.5-0.1,0.8-0.2v1.4c-0.4,0.2-0.8,0.2-1.4,0.2
		C91.6,656.1,91.1,655.9,90.8,655.5z"/>
</g>
<g id="Capa_2_2_">
	<g>
		<path class="st3" d="M31.7,647.4L31.7,647.4L31.7,647.4c0.1-0.2,0.1-0.5,0.1-0.7c0-3.2-2.6-5.8-5.8-5.8s-5.8,2.6-5.8,5.8
			c0,0.2,0,0.5,0.1,0.7l0,0c-1.1,0-1.9,0.9-1.9,1.9l0,0c0,1.1,0.9,1.9,1.9,1.9h11.5c1.1,0,1.9-0.9,1.9-1.9l0,0
			C33.6,648.2,32.7,647.4,31.7,647.4z"/>
		<path class="st3" d="M20.8,652.8H31l-4.2,8.3c-0.4,0.8-1.5,0.8-1.9,0L20.8,652.8z"/>
	</g>
</g>
</svg>
